<svg width="157" height="101" viewBox="0 0 157 101" fill="none" xmlns="http://www.w3.org/2000/svg">
<g style="mix-blend-mode:soft-light">
<path d="M79.2605 69.9963C84.0088 69.9963 88.5945 70.4496 93.0176 71.3563C97.3757 72.1983 101.474 73.3964 105.311 74.9507C109.084 76.4403 112.499 78.2213 115.556 80.2937C118.613 82.3661 121.15 84.5681 123.166 86.8996V100.5C118.418 95.3189 112.661 91.2064 105.897 88.1625C99.1319 85.1186 91.424 83.5967 82.7729 83.5967H75.9431C67.6173 83.5967 60.0395 85.1186 53.2097 88.1625C46.3148 91.1416 40.4282 95.2541 35.5498 100.5V86.9968C37.6963 84.5358 40.2981 82.269 43.3553 80.1966C46.4124 78.1241 49.8273 76.3431 53.6 74.8536C57.3076 73.364 61.3404 72.1983 65.6984 71.3563C70.0565 70.4496 74.5772 69.9963 79.2605 69.9963Z" fill="#E5291C"/>
<path d="M28.3948 46.6166C28.3948 53.3231 22.9344 58.7598 16.1987 58.7598C9.46301 58.7598 4.00264 53.3231 4.00264 46.6166C4.00264 39.9101 9.46301 34.4734 16.1987 34.4734C22.9344 34.4734 28.3948 39.9101 28.3948 46.6166Z" fill="#E5291C"/>
<path d="M150.355 46.6166C150.355 53.3231 144.895 58.7598 138.159 58.7598C131.424 58.7598 125.963 53.3231 125.963 46.6166C125.963 39.9101 131.424 34.4734 138.159 34.4734C144.895 34.4734 150.355 39.9101 150.355 46.6166Z" fill="#E5291C"/>
<path d="M0.25 15.3085L10.1397 0.5L33.9121 15.8502L26.7948 26.3728L0.25 15.3085Z" fill="#E5291C"/>
<path d="M156.5 15.3085L146.61 0.5L122.838 15.8502L129.955 26.3728L156.5 15.3085Z" fill="#E5291C"/>
</g>
</svg>
