<svg width="157" height="67" viewBox="0 0 157 67" fill="none" xmlns="http://www.w3.org/2000/svg">
<g style="mix-blend-mode:soft-light">
<path d="M80.5972 67C75.5972 67 70.7708 66.5441 66.1181 65.6322C61.4653 64.6502 57.1597 63.3526 53.2014 61.7393C49.1736 60.126 45.5278 58.1971 42.2639 55.9525C39 53.7079 36.2222 51.2529 33.9305 48.5875V33.9627C39.1389 39.6443 45.4236 44.1334 52.7847 47.4301C60.0764 50.6567 68.1667 52.27 77.0556 52.27H84.3472C93.5833 52.27 101.812 50.6216 109.035 47.3249C116.257 44.0282 122.403 39.5741 127.472 33.9627V48.6927C125.319 51.2178 122.611 53.6027 119.347 55.8473C116.083 58.0918 112.438 60.0559 108.41 61.7393C104.312 63.3526 99.9375 64.6502 95.2847 65.6322C90.5625 66.5441 85.6667 67 80.5972 67Z" fill="#106194"/>
<path d="M26.2917 13.9018C26.2917 21.1653 20.462 27.0536 13.2708 27.0536C6.07963 27.0536 0.25 21.1653 0.25 13.9018C0.25 6.63826 6.07963 0.75 13.2708 0.75C20.462 0.75 26.2917 6.63826 26.2917 13.9018Z" fill="#106194"/>
<path d="M156.5 13.9018C156.5 21.1653 150.67 27.0536 143.479 27.0536C136.288 27.0536 130.458 21.1653 130.458 13.9018C130.458 6.63826 136.288 0.75 143.479 0.75C150.67 0.75 156.5 6.63826 156.5 13.9018Z" fill="#106194"/>
</g>
</svg>
