<svg width="32" height="32" viewBox="0 0 32 32" fill="none" xmlns="http://www.w3.org/2000/svg">
<circle cx="16" cy="16" r="16" fill="#08131A"/>
<path d="M16.256 16.388C16.84 16.388 17.404 16.444 17.948 16.556C18.484 16.66 18.988 16.808 19.46 17C19.924 17.184 20.344 17.404 20.72 17.66C21.096 17.916 21.408 18.188 21.656 18.476L21.656 20.156C21.072 19.516 20.364 19.008 19.532 18.632C18.7 18.256 17.752 18.068 16.688 18.068L15.848 18.068C14.824 18.068 13.892 18.256 13.052 18.632C12.204 19 11.48 19.508 10.88 20.156L10.88 18.488C11.144 18.184 11.464 17.904 11.84 17.648C12.216 17.392 12.636 17.172 13.1 16.988C13.556 16.804 14.052 16.66 14.588 16.556C15.124 16.444 15.68 16.388 16.256 16.388Z" fill="#E5291C"/>
<path d="M10 13.5C10 14.3284 9.32843 15 8.5 15C7.67157 15 7 14.3284 7 13.5C7 12.6716 7.67157 12 8.5 12C9.32843 12 10 12.6716 10 13.5Z" fill="#E5291C"/>
<circle cx="23.5" cy="13.5" r="1.5" fill="#E5291C"/>
<path d="M6.53846 9.63264L7.7548 7.8034L10.6786 9.69954L9.80322 10.9994L6.53846 9.63264Z" fill="#E5291C"/>
<path d="M25.7557 9.63264L24.5394 7.8034L21.6156 9.69954L22.491 10.9994L25.7557 9.63264Z" fill="#E5291C"/>
</svg>
