<svg width="32" height="32" viewBox="0 0 32 32" fill="none" xmlns="http://www.w3.org/2000/svg">
<circle cx="16" cy="16" r="16" fill="#FFC069"/>
<path d="M16.256 19.556C15.68 19.556 15.124 19.504 14.588 19.4C14.052 19.288 13.556 19.14 13.1 18.956C12.636 18.772 12.216 18.552 11.84 18.296C11.464 18.04 11.144 17.76 10.88 17.456L10.88 15.788C11.48 16.436 12.204 16.948 13.052 17.324C13.892 17.692 14.824 17.876 15.848 17.876L16.688 17.876C17.752 17.876 18.7 17.688 19.532 17.312C20.364 16.936 21.072 16.428 21.656 15.788L21.656 17.468C21.408 17.756 21.096 18.028 20.72 18.284C20.344 18.54 19.924 18.764 19.46 18.956C18.988 19.14 18.484 19.288 17.948 19.4C17.404 19.504 16.84 19.556 16.256 19.556Z" fill="#106194"/>
<path d="M10 13.5C10 14.3284 9.32843 15 8.5 15C7.67157 15 7 14.3284 7 13.5C7 12.6716 7.67157 12 8.5 12C9.32843 12 10 12.6716 10 13.5Z" fill="#106194"/>
<circle cx="23.5" cy="13.5" r="1.5" fill="#106194"/>
</svg>
